<?xml version="1.0" standalone="no"?>
<!DOCTYPE svg PUBLIC "-//W3C//DTD SVG 20010904//EN"
 "http://www.w3.org/TR/2001/REC-SVG-20010904/DTD/svg10.dtd">
<svg version="1.0" xmlns="http://www.w3.org/2000/svg"
 width="512.000000pt" height="512.000000pt" viewBox="0 0 512.000000 512.000000"
 preserveAspectRatio="xMidYMid meet">
<metadata>
Created by potrace 1.14, written by Peter Selinger 2001-2017
</metadata>
<g transform="translate(0.000000,512.000000) scale(0.100000,-0.100000)"
fill="#000000" stroke="none">
<path d="M0 2560 l0 -2560 2560 0 2560 0 0 2560 0 2560 -2560 0 -2560 0 0
-2560z m2396 1446 c18 -14 13 -27 -143 -340 -90 -180 -163 -328 -163 -330 0
-6 97 -15 440 -40 305 -23 839 -61 967 -69 60 -4 63 -20 -25 163 -32 69 -100
211 -151 317 -50 105 -91 194 -91 197 0 2 7 12 16 20 28 29 49 19 76 -38 22
-44 33 -55 58 -61 17 -4 46 -19 63 -34 102 -87 177 -96 273 -32 33 21 74 42
92 46 22 5 43 21 67 52 19 25 35 50 35 54 0 13 34 11 48 -3 7 -7 12 -20 12
-30 0 -10 -85 -157 -190 -327 -104 -170 -192 -315 -195 -323 -5 -13 94 -95
525 -432 102 -79 186 -143 188 -141 4 4 -19 57 -196 453 -78 173 -138 321
-135 331 2 9 17 25 33 34 33 20 29 24 78 -78 37 -78 38 -78 105 -101 26 -9 73
-31 103 -49 78 -47 129 -53 207 -25 34 12 95 30 136 39 l75 16 53 72 c29 39
57 74 63 78 14 8 50 -31 50 -55 0 -25 -35 -77 -309 -460 -116 -162 -211 -304
-211 -316 0 -11 59 -151 131 -310 216 -476 219 -486 179 -537 -25 -32 -75 -63
-116 -71 l-31 -7 -26 108 c-15 59 -42 137 -60 173 -28 57 -37 66 -72 76 -22 7
-75 13 -117 13 l-76 1 -37 -43 c-20 -23 -61 -93 -91 -155 l-55 -113 -30 18
c-17 10 -46 35 -65 56 -27 29 -34 46 -34 77 0 48 -5 40 229 370 99 140 181
259 181 263 0 18 -55 -13 -518 -285 -501 -295 -532 -314 -532 -329 0 -7 111
-215 263 -489 73 -132 144 -267 156 -298 18 -43 8 -116 -23 -163 -28 -41 -119
-104 -140 -96 -8 3 -18 23 -21 44 -17 100 -60 255 -90 318 -45 98 -67 115
-157 125 -110 13 -152 4 -190 -39 -43 -48 -91 -156 -129 -287 -17 -60 -34
-115 -38 -122 -10 -19 -94 39 -126 86 -36 55 -46 97 -35 148 9 41 53 112 260
429 192 292 220 339 213 346 -8 7 -130 21 -1307 145 -508 53 -624 63 -648 53
-15 -6 -28 -15 -28 -19 0 -6 227 -329 424 -604 62 -87 60 -155 -5 -230 -23
-26 -54 -53 -69 -61 l-29 -15 -30 83 c-51 135 -108 242 -153 283 l-41 37 -86
-7 c-48 -4 -101 -14 -121 -24 -58 -28 -97 -119 -140 -331 -11 -52 -23 -98 -28
-103 -14 -14 -112 43 -145 85 -25 30 -31 47 -30 85 0 48 3 56 126 312 30 63
96 200 146 305 50 104 91 199 91 211 0 62 -64 171 -126 213 -34 23 -87 27
-121 8 -39 -22 -71 -76 -103 -178 -35 -109 -39 -112 -105 -85 -53 23 -85 59
-85 99 0 19 21 80 46 138 26 57 71 162 100 233 l54 128 -105 151 c-112 161
-121 184 -84 231 27 35 50 33 75 -7 95 -150 109 -167 144 -177 63 -18 80 -10
80 39 0 10 -52 92 -117 182 -161 227 -363 526 -363 539 0 16 40 52 53 47 7 -2
31 -31 55 -65 37 -52 48 -62 80 -67 20 -3 66 -21 102 -39 118 -61 189 -55 288
22 20 16 54 35 74 41 44 14 50 22 88 100 29 59 31 60 55 49 48 -22 43 -44 -61
-275 -54 -120 -109 -236 -122 -257 -13 -21 -44 -80 -68 -129 -42 -86 -53 -127
-36 -127 33 0 551 187 574 207 9 8 21 12 27 9 5 -4 128 34 273 85 145 50 271
93 281 96 9 3 17 11 17 18 0 6 -70 135 -156 286 -198 348 -201 353 -184 373
22 28 46 18 77 -33 24 -38 39 -51 64 -56 19 -4 52 -23 74 -41 90 -74 178 -73
266 3 19 17 51 36 71 43 28 10 43 25 63 62 28 51 40 57 71 34z"/>
<path d="M2100 3287 c0 -3 72 -134 160 -290 88 -156 160 -292 160 -303 0 -27
-26 -61 -60 -79 -53 -27 -63 -21 -103 63 -20 42 -47 90 -60 106 -23 29 -27 30
-108 29 -82 0 -84 -1 -111 -34 -15 -18 -43 -69 -62 -113 -37 -89 -40 -90 -106
-57 -19 10 -41 30 -49 46 -13 27 -8 39 133 323 81 162 145 297 142 300 -3 2
-117 -33 -253 -80 -218 -74 -248 -87 -244 -104 9 -50 -4 -86 -119 -324 -67
-140 -137 -287 -155 -326 l-33 -70 34 -54 c38 -60 45 -121 18 -151 -14 -16
-14 -18 3 -23 17 -5 256 -31 1128 -121 187 -20 425 -45 528 -55 220 -23 217
-23 217 -10 0 6 -93 180 -206 387 -218 397 -264 487 -264 515 0 21 47 78 64
78 7 0 33 -44 58 -98 64 -138 74 -148 188 -176 112 -28 191 -39 206 -28 12 8
170 260 239 382 26 47 59 102 73 123 14 20 22 40 20 43 -5 5 -184 19 -903 73
-336 26 -535 36 -535 28z"/>
<path d="M3610 3136 c0 -15 97 -216 118 -243 13 -18 28 -47 32 -65 4 -18 33
-87 64 -153 70 -150 68 -177 -19 -216 -66 -31 -87 -26 -108 25 -10 24 -29 54
-42 66 l-25 23 -31 -34 c-37 -40 -371 -550 -365 -557 3 -2 209 115 458 261
537 313 598 350 598 358 0 9 -629 510 -667 533 -7 4 -13 5 -13 2z"/>
<path d="M1195 2999 c-261 -89 -315 -109 -315 -118 0 -24 33 -39 105 -50 78
-11 83 -10 200 23 166 48 179 53 197 84 26 44 49 132 35 132 -7 0 -107 -32
-222 -71z"/>
<path d="M3365 2687 c-23 -7 -40 -19 -40 -27 0 -30 166 -5 169 25 2 15 -83 16
-129 2z"/>
</g>
</svg>
