<svg xmlns="http://www.w3.org/2000/svg" width="1285" viewBox="0 0 1285 409" height="409" fill="none"><g fill="#49494b"><path d="m947.554 110.879-4.452-47.3173-27.267 48.7843-27.268-48.5819-4.452 47.0639h-12.394l8.499-84.5126 35.615 63.4603 35.513-63.4603 8.499 84.5126h-12.242z"></path><path d="m1004.82 110.879-.35-3.442c-3.44 2.986-7.895 4.707-12.954 4.707-10.775 0-19.122-7.996-19.122-18.4208 0-10.4249 8.246-18.4207 19.375-18.4207 4.806 0 8.801 1.7206 12.041 4.2509v-2.6315c0-6.174-2.88-9.4128-11.13-9.4128-4.351 0-8.347.9109-12.344 2.2773l1.619-9.261c4.249-1.2651 8.246-1.8218 12.344-1.8218 13.401 0 20.491 6.0728 20.491 17.4086v25.2018l.45 9.615h-10.42zm-.45-17.3077c0-5.6173-4.709-9.9694-10.527-9.9694-5.817 0-10.421 4.3521-10.421 9.9694s4.553 9.8687 10.421 9.8687c5.869 0 10.527-4.3526 10.527-9.8687z"></path><path d="m1059.86 58.7539v10.8804c-10.77 0-16.49 5.1618-16.49 16.0422v25.2015h-11.58v-50.4035l10.87-1.6194v8.5019c3.34-5.6173 8.96-8.6031 17.2-8.6031z"></path><path d="m1067.3 85.2212c0-15.03 12.14-26.8213 27.62-26.8213 4.45 0 9.06 1.0121 13.41 2.9858l-1.72 10.4249c-3.64-2.0749-7.44-3.1882-11.33-3.1882-9.62 0-16.5 7.3379-16.5 16.5988 0 9.261 6.88 16.6998 16.6 16.6998 4.25 0 8.14-1.366 11.78-3.4409l1.72 10.4249c-4.35 2.075-9.05 3.188-13.96 3.188-15.33 0-27.62-11.892-27.62-26.9224z"></path><path d="m1169.44 79.7053v31.1737h-11.59v-29.7568c0-7.9958-4.55-12.3479-11.23-12.3479-7.23 0-12.34 5.1618-12.34 13.1576v28.9971h-11.59v-81.4252l11.59-1.7206v37.7017c3.64-4.6052 9.05-7.0849 15.58-7.0849 11.69 0 19.58 7.9958 19.58 21.3053z"></path><path d="m947.554 221.453-4.452-47.317-27.267 48.785-27.268-48.582-4.452 47.064h-12.394l8.499-84.513 35.615 63.46 35.513-63.46 8.499 84.513h-12.242z"></path><path d="m1018.63 204.399 3.8 9.261c-6.33 5.718-14.32 9.058-22.921 9.058-16.037 0-27.723-11.69-27.723-26.821s11.787-26.922 27.268-26.922c12.946 0 23.266 8.501 24.836 22.671l-39.608 12.804c2.732 5.263 8.145 8.805 15.328 8.805 6.63 0 13.05-2.733 19.02-8.957zm-36.271-8.957 29.441-9.615c-2.17-4.707-6.98-7.541-12.696-7.541-9.257 0-16.391 7.439-16.694 17.206z"></path><path d="m1081.06 204.399 3.79 9.261c-6.27 5.718-14.31 9.058-22.91 9.058-16.04 0-27.73-11.69-27.73-26.821s11.79-26.922 27.27-26.922c12.95 0 23.22 8.501 24.84 22.671l-39.61 12.804c2.73 5.263 8.14 8.805 15.33 8.805 6.63 0 13.05-2.733 19.02-8.957zm-36.32-8.957 29.44-9.615c-2.18-4.707-6.98-7.541-12.7-7.541-9.26 0-16.39 7.439-16.74 17.206z"></path><path d="m1113.59 180.108v24.392c0 4.808 2.63 7.541 7.08 7.541 2.43 0 5.26-.81 6.98-1.468v10.071c-2.07.911-5.51 1.72-9.15 1.72-10.43 0-16.5-6.275-16.5-16.7v-25.556h-7.79l1.72-9.868h6.07v-10.425l11.59-6.326v16.7h14.06v9.869h-14.06z"></path><path d="m1140 151.364c0-4.099 3.34-7.338 7.53-7.338 4.2 0 7.54 3.188 7.54 7.338s-3.34 7.338-7.54 7.338c-4.19 0-7.53-3.188-7.53-7.338zm1.82 19.837 11.58-1.821v52.124h-11.58z"></path><path d="m1218.46 190.28v31.173h-11.58v-29.756c0-8.148-4.61-12.5-11.24-12.5-7.23 0-12.34 5.162-12.34 13.31v28.997h-11.58v-50.404l11.13-1.72v6.629c3.79-4.453 9.41-6.984 15.93-6.984 11.89 0 19.68 7.996 19.68 21.306z"></path><path d="m1282.2 177.021-7.99-.557c4.25 3.796 6.88 9.16 6.88 15.334 0 7.895-4.1 14.676-10.62 18.572 5.61 3.644 9.15 9.616 9.15 16.852 0 11.69-9.25 21.407-23.01 21.407-11.34 0-19.94-6.883-22.21-17.055l9.05-4.807c1.17 7.439 6.07 12.247 13.16 12.247 7.08 0 12.59-5.263 12.59-12.045 0-6.781-5.36-12.145-12.7-12.145-5.05 0-8.8 2.53-11.68 5.971l-3.9-7.995c.81-.709 1.62-1.367 2.43-1.924-6.78-3.896-11.23-10.779-11.23-19.129 0-12.044 9.41-22.216 25.09-22.924l26.66-1.012-1.62 9.261zm-39.41 14.878c0 7.54 5.97 13.31 13.76 13.31 7.8 0 13.87-5.719 13.87-13.31s-5.97-13.411-13.87-13.411c-7.89 0-13.76 5.82-13.76 13.411z"></path></g><path fill="#00b189" d="m74.3807 161.131c.7589-1.063 1.4671-2.126 2.1248-3.239 10.472-17.763 5.8683-40.89-11.1297-53.238-10.0167-7.2368-22.2593-9.2104-33.389-6.4777-4.6037 1.1133-9.0049 3.0867-13.0015 5.8197-3.7942 2.581-7.2343 5.82-10.06729 9.716-13.10265 18.117-9.0555 43.421 9.05549 56.528 13.8109 10.02 31.8208 9.969 45.4293 1.366 4.1989-2.682 7.9931-6.123 11.0791-10.374z"></path><path fill="#00538b" d="m763.864 123.682c-22.563-15.739-41.534-20.141-63.945-28.4408-19.376-7.1861-18.617-18.8255-12.395-24.9489 10.877-10.6273 31.416-6.3764 40.067-2.0748 8.651 4.3015 14.62 11.0828 15.986 12.8034 3.44 4.3521 8.702 3.4918 11.383.3542 2.479-2.8845 31.871-35.1207 35.16-38.7138 3.288-3.593 2.681-7.9958-.355-11.0322-3.035-3.0363-15.075-14.524-37.992-23.43068-22.968-8.906701-42.344-9.31155-59.342-6.93306-16.998 2.3785-50.994 9.00794-70.319 43.92624-19.325 34.9184-4.958 76.3654 11.686 90.5854 19.68 16.852 34.199 20.647 56.104 27.479 21.905 6.883 35.261 16.852 27.672 31.831-7.032 13.816-31.669 10.881-46.087 2.885-8.144-4.555-15.075-9.818-19.881-15.992-2.884-3.694-8.044-3.947-11.383-.354s-33.085 35.121-36.272 38.36c-2.631 2.682-3.339 7.338.202 10.88 5.059 5.061 15.581 17.459 40.674 27.53 20.387 8.198 42.95 10.728 68.043 8.147 30.1-3.086 60.201-24.493 69.813-47.266 17.858-42.509 3.744-79.856-18.819-95.595z"></path><path fill="#00538b" d="m493.211 2.93535h-86.306c-2.58 0-3.895 1.41697-3.895 4.25093v252.32272c0 2.581 1.315 3.897 3.895 3.897h58.987c2.58 0 3.896-1.316 3.896-3.897v-88.864h22.006c14.368 0 96.98-.709 96.98-84.6141 0-83.90525-79.83-83.09555-95.563-83.09555zm-5.666 110.52365h-17.757v-52.2252h18.465c12.496 0 35.868 0 35.868 25.2525 0 25.2527-25.042 26.9727-36.576 26.9727z"></path><path fill="#00538b" d="m192.507 42.6609 4.603-11.8419c-131.3296-37.60047-210.3503-6.8319-178.1754 73.177 3.9965-2.733 8.3978-4.7067 13.0015-5.82-32.832575-69.3307 37.4867-99.137747 160.5709-55.5151z"></path><path fill="#00538b" d="m481.423 227.374v14.777c18.415 17.662 33.996 35.576 46.441 52.377 67.132 90.636 30.303 122.619-108.008 76.77-74.164-24.594-156.473-67.812-227.197-116.597l14.013-40.788h84.94l17.403 46.557c.455 1.873 1.669 2.834 3.541 2.834h62.882c2.833 0 4.25-1.417 4.25-4.251 0-.506-.253-1.164-.708-2.125l-96.93-251.31084c-.708-1.87244-1.922-2.83396-3.541-2.83396h-55.041c-1.923 0-3.187.96152-3.946 2.83396l-81.297 208.54884c-23.17-18.725-44.0637-37.651-61.7194-56.275-.6577 1.114-1.3659 2.177-2.1248 3.239-3.0859 4.251-6.8801 7.743-11.079 10.375 18.6169 21.558 41.1802 43.319 66.4242 64.371 11.129 9.261 22.714 18.42 34.805 27.378 75.631 56.173 167.906 104.805 251.986 128.843 146.254 41.852 186.22 4.15 121.313-97.113-14.215-22.166-33.439-45.04-56.457-67.661zm-231.75-140.0277 23.474 68.9767h-47.251z"></path></svg>