<?xml version="1.0" encoding="utf-8"?>
<!-- Generator: Adobe Illustrator 19.2.1, SVG Export Plug-In . SVG Version: 6.00 Build 0)  -->
<svg version="1.1" id="layer" xmlns="http://www.w3.org/2000/svg" xmlns:xlink="http://www.w3.org/1999/xlink" x="0px" y="0px"
	 viewBox="0 0 652 652" style="enable-background:new 0 0 652 652;" xml:space="preserve">
<style type="text/css">
	.st0{fill:#FFCB05;}
	.st1{fill:#ED1C24;}
	.st2{fill:#F58220;}
	.st3{fill:#4C7581;}
</style>
<g>
	<g>
		<path class="st0" d="M218.7,320.1c16,0,32.3,0,48.3,0c21.3,0,39.5-7.3,56.7-18.5c6.3-4,12.8-8,19.5-11.5c1.5-0.8,3-1.5,4.5-2.3
			c-0.3,0.3,7.8-3,2.8-1.3c3.8-1.3,7.5-2,11.5-2.5c14.5-1.8,28.5,3.3,41.3,9.3c28.5,13.5,53,34.8,81.5,48.5
			c17.5,8.5,35.3,7.5,54.2,7.5c24.8,0,49.5,0,74.3,0c2.5,0,5.3-2.8,7.8-2.8c-21.3,0-42.5,0-63.8,0c-18,0-37.8,2.3-55-3.5
			c-8.8-3-16.8-7.8-24.8-12.3c-14.5-8.5-28.8-17.8-42.8-26.8c-15-9.8-30.7-18.8-48.2-22.3c-11.5-2.3-22.5-0.5-33.3,3.5
			c-12.8,4.5-24.3,10.8-35.5,18c-8.5,5.5-15.5,10.5-25.5,12.5c-5.3,1-10.8,1.5-16.3,1.8c-16.5,0.3-33,0-49.2,0
			C223.7,317.1,221.2,320.1,218.7,320.1z"/>
		<path class="st1" d="M218.7,324.8c11,0,22,0,33,0c15,0,29,0.8,43.3-4.5c10.8-4,18.8-10.3,25.8-19.5c7-9.3,12.3-23,23.5-28.3
			c-2.5,1-5,1.8-7.8,2.8c7.5-2.5,13.3,2.8,17.8,8.3c5.8,6.8,10.5,14.3,15.8,21.3c9.5,12.3,21.5,23.8,37.8,25
			c19.7,1.5,42.8-6,58.8-17.5c6.8-4.8,12.2-10.8,19-15.8c1.8-1.3,5-2,0-0.8c1.3-0.3,2.5-0.3,3.8-0.3c2.5,0.3,5,1.8,7,3.3
			c5.5,3.8,10.3,9,15.3,13.8c7.2,6.8,14.7,13,22.8,18.5c5.8,3.8,11,7.8,17.3,10.5c7,3,14.5,3,22,3c11.8,0,23.8,0,35.5,0
			c1.3,0,2.2,0,3.5,0c2.5,0,5.3-2.8,7.8-2.8c-10,0-19.8,0-29.8,0c-13.5,0-26.3,0.5-38.3-6.5c-15-8.8-27.8-20.3-40.3-32
			c-4-3.8-8.3-8-13.3-10c-4-1.5-8.5,0.5-12.3,2c-13.3,4.8-21.8,16.8-33.5,24c-9.3,5.8-20.8,8-31.8,8c-15.3,0-26.5-6.5-37-17.5
			c-5.5-5.8-10-12.3-14.8-18.8c-5-6.8-9.7-14.8-17.8-18.3c-6.8-2.8-17.8,3.5-22.5,8c-8.8,8.8-13.8,20.8-22.3,30
			c-4.2,4.8-10,9.3-16.3,10.5c-9.2,2-19.2,1-28.8,1c-11.7,0-23.7,0-35.5,0C223.7,322.1,221.2,324.8,218.7,324.8z"/>
		<path class="st2" d="M218.7,315.1c14.8,0,29.8,0,44.5,0c14,0,28,1.5,41.5,4.5c16.5,3.8,33.3,13,50.5,9.3c8-1.8,16.5-5.3,22.5-11
			c7.5-6.8,11.5-16.5,16.3-25.3c2-3.8,4.3-7.3,7.2-10c2.3-2.3,6.5-2.8,0.3-1.5c3-0.8,6-0.3,8.8,0.5c12.8,3.3,14.7,21,16.5,31.5
			c3.5,20,3.3,54.8,30.3,55.8c6.8,0.3,13-2.3,19.5-4.8c13.3-4.8,26.5-7.5,40.5-9c31-3,63-1,94.2-1c2.5,0,5.3-2.8,7.8-2.8
			c-18.8,0-37.5,0-56.5,0c-27.2,0-53.7,1-79.7,10.5c-10,3.5-20.3,7-30.8,0.8c-6.5-3.8-9.3-11.8-11-18.5c-2.5-9.3-4-18.8-5.5-28
			c-1.8-11.8-2.8-28.8-14-36c-7.5-4.8-16.3-1.3-23.5,2c-12,5-16.5,23.3-23.5,33c-2.2,3-4.7,5.8-7.8,8c-1.8,1.3-3.5,2.5-5.5,3.3
			c1.8-0.8,1.8-0.8,0-0.3c-1.5,0.3-3,0.5-4.5,0.5c-13.5,1.3-27.3-5.5-40-9c-29-8-60.8-5.5-90.8-5.5
			C223.7,312.3,221.2,315.1,218.7,315.1z"/>
	</g>
	<path class="st3" d="M207.2,357.1L207.2,357.1l-8.8-16h-9.5v30h8.8v-16.5l0,0l9.3,16.5h9v-30h-8.8
		C207.1,341.1,207.1,357.1,207.2,357.1z M138.6,358.8L138.6,358.8l-4.5-17.8h-13v30h8.7v-19.3l0,0l5.3,19.3h7l5.3-19.3l0,0v19.3h8.8
		v-30h-13.2L138.6,358.8z M36.1,364.3c-4.3,0-5.8-4.3-5.8-8.3s1.5-8.3,5.8-8.3c3.8,0,4.8,3.3,4.8,4.5h9c-0.8-7.5-5.3-12-13.8-12
		c-9.3,0-15.3,6.3-15.3,15.8c0.3,9,5.8,15.8,15.5,15.8c8.8,0,13.8-6.5,13.8-12.5h-9C40.4,362.1,39.4,364.3,36.1,364.3z M66.4,340.3
		c-9.3,0-15.3,6.5-15.3,15.8s6,15.8,15.3,15.8s15.3-6.5,15.3-15.8S75.4,340.3,66.4,340.3z M66.4,364.3c-2.3,0-6-1.5-6-8.3
		s3.5-8.3,6-8.3c2.3,0,6,1.5,6,8.3S68.7,364.3,66.4,364.3z M100.9,358.8L100.9,358.8l-4.5-17.8H83.1v30h8.8v-19.3l0,0l5.3,19.3h7
		l5.2-19.3l0,0v19.3h8.8v-30h-13.2L100.9,358.8z M176.9,357.3c0,3,0,7-4.5,7c-4.5,0-4.5-3.8-4.5-7v-16.5h-9.3v18.5
		c0,8.3,4.5,12.3,13.8,12.3s13.8-4,13.8-12.3v-18.5h-9.3V357.3z M312.1,371.1h9.3v-30h-9.3V371.1z M338.4,340.3
		c-9.2,0-15.2,6.5-15.2,15.8s6,15.8,15.2,15.8c9.3,0,15.3-6.5,15.3-15.8S347.7,340.3,338.4,340.3z M338.4,364.3c-2.3,0-6-1.5-6-8.3
		s3.5-8.3,6-8.3c2.3,0,6,1.5,6,8.3S340.9,364.3,338.4,364.3z M284.6,348.8h8.5v22.5h9.2v-22.5h8.5v-7.8h-26.3V348.8z M402.1,352.8
		c-4.3-1.3-8.5-1.8-8.8-3.8c0-1.8,2-2,3.3-2c1,0,2,0.3,2.8,0.8c0.8,0.5,1.3,1.3,1,2.5h8.8c-0.3-7.3-6-9.8-12.5-9.8
		c-6.3,0-12.2,3-12.2,10c0,6,5.5,7.5,10.3,8.8c5.3,1.5,6.5,2,6.5,3.5c0,2.3-2.3,2.8-3.8,2.8c-1.8,0-3.8-0.3-4.5-2.3
		c-0.3-0.5-0.3-1.3-0.3-2h-9.3c0,9.5,9.8,10.8,13.3,10.8c6.8,0,14-2.5,14-10.5C410.7,355.8,406.4,353.8,402.1,352.8z M373.9,357.1
		L373.9,357.1l-8.8-16h-9.5v30h8.8v-16.5l0,0l9.2,16.5h9v-30h-8.8V357.1z M249.7,359.3c-0.5,2.8-1.8,5-5,5c-4.3,0-5.8-4.3-5.8-8.3
		s1.5-8.3,5.8-8.3c3.8,0,4.8,3.3,4.8,4.5h9.2c-0.8-7.5-5.2-12-13.7-12c-9.3,0-15.3,6.3-15.3,15.8c0,9,5.5,15.8,15.3,15.8
		c8.8,0,13.7-6.5,13.7-12.5H249.7z M218.7,371.1h9.2v-30h-9.2V371.1z M268.9,341.1l-11,30h9.3l1.3-4.3h9.5l1.3,4.3h9.5l-11-30H268.9
		z M270.4,360.3l3-9.3l0,0l2.8,9.3H270.4z M129.1,329.1c6.8,0,11-6,12-6c0.5,0,0.8,0.5,0.8,1.3c0,1.5,0,2.5,0,3.8
		c0,1,0.3,1.3,0.8,1.3c0.3,0,1-0.3,1.3-0.5c2.5-1,8.8-2.5,10.3-3c1-0.3,1.5-0.5,1.5-0.8s-0.3-0.5-0.5-0.5s-1.5,0-2.3,0
		c-1.5,0-2.5-0.3-2.7-1c-0.5-1-0.5-4.3-0.5-8.8c0-7.3,0.5-16.8,0.5-19.8c0-1-0.3-1.5-1.5-1.5l-12,0.8c-1,0-1.3,0.3-1.3,0.8
		s0.5,0.5,2.3,0.8c1.5,0.3,2.8,0.3,3.5,1c1,0.8,1,5,1,13.3c0,4,0,8.8-1,10.5c-1.3,2.3-4.3,3.5-7.3,3.5c-5.3,0-7.3-2.8-7.3-6.5
		c0-15.5,0.2-18.8,0.2-22c0-1.8-0.2-2-1.8-2l-17,0.8c-0.5,0-1-0.5-1-1.3c0-1.5,0.2-4,0.2-5.5c0-0.8-0.2-1-0.7-1
		c-0.5,0-0.8,0.5-1.3,1.3c-2,2.8-5.8,6-8.5,7.8c-1.3,0.8-1.8,1-1.8,1.5c0,0.3,0.3,0.5,0.5,0.5h2.5c1.5,0,1.8,1.3,1.8,2.3
		s-0.5,15.5-0.5,18.5c0,6.3,1.3,10.5,7.3,10.5c5.5,0,10.7-4.8,10.7-5.5c0-0.3-0.2-0.5-0.5-0.5c-0.2,0-3,1.5-5.8,1.5
		c-2,0-3.2-0.5-4-2s-0.8-4-0.8-7.8c0-9.3,0-13.5,0.3-16.3c0-1.8,0.2-2,1.5-2s2.8,0,5,0c6.3,0,6.5,0,6.5,3.3c0,1.5-0.3,14.5-0.3,19
		C119.4,326.8,124.9,329.1,129.1,329.1z M196.6,329.1c8.5,0,15-7.8,15-9.3c0-0.3,0-0.5-0.5-0.5c-0.5,0-3.5,4.8-10.5,4.8
		c-9.3,0-12.8-7.3-12.8-15.3c0-3.5,0.8-3.5,2.5-3.5c7,0,13,0.5,17.8,0.5c2.3,0,3.3,0,3.3-2c0-5.8-5.8-11.3-13.3-11.3
		c-10,0-18.5,7.8-18.5,19.3C180.1,322.3,187.4,329.1,196.6,329.1z M198.4,294.1c4.8,0,6.3,3.5,6.3,5c0,4-6.3,4.5-10.8,4.5
		c-3.8,0-5-0.3-5-1.3C188.9,299.6,192.2,294.1,198.4,294.1z M173.9,328.3c0.5,0,1.8,0,1.8-0.5c0-0.8-0.8-0.8-1.5-0.8
		c-1-0.3-4.5-0.8-5.5-2c-0.7-1.3-0.7-6-0.7-12c0-6.5,0-11,1.5-12.5c0.5-0.5,1-1.5,2.5-1.5c2.8,0,3.3,3,6.3,3c2.3,0,4.3-1.8,4.3-4.3
		s-2-4.8-5-4.8c-5.2,0-8,6-9.3,6c-0.2,0-0.5,0-0.5-0.8v-4.5c0-1-0.5-1.3-0.8-1.3c-0.2,0-0.8,0-1.8,1.3c-2,2-6.8,4.8-8,5
		c-1,0.5-1.5,0.5-1.5,1c0,0.3,0.5,0.5,1,0.5c3.8,0.3,4,1.3,4,10.8s0,12.5-0.5,13.8c-0.5,1.5-3,2-3.8,2c-0.8,0.3-1.8,0.3-1.8,1
		c0,0.5,1,0.5,1.5,0.5c0.8,0,6-0.3,8.5-0.3C167.4,328.1,173.4,328.3,173.9,328.3z M88.4,328.6c5,0,8-4.3,8-5.8c0-0.3,0-0.5-0.5-0.5
		c-0.5,0-1.8,2-4.3,2c-2.3,0-2.8-2.3-2.8-4.8s0.5-15.5,0.5-20.3c0-6-5.3-6.8-10-6.8c-9.8,0-15.3,7.3-15.3,10.8c0,1.3,1,1.8,2,1.8
		c1.5,0,3.5-1,4-2.5c1-3.5,2.5-8.3,7.8-8.3c2,0,3.3,0.3,4.3,2.3c0.5,1,0.5,2.8,0.5,5c0,7.8,0,6.8-7.3,10.3c-4.5,2.3-10.3,5-10.3,11
		c0,2.5,2,6.5,6.8,6.5c4.7,0,8.2-3,10-5.5l0.3-0.3c0.3,0,0.5,0.3,0.5,0.5C82.9,326.3,85.2,328.6,88.4,328.6z M80.4,322.6
		c-1.3,1.8-2.8,3-4.8,3c-1.8,0-4.3-1.3-4.3-4.5c0-5.8,8.5-9.8,9.5-9.8c0.8,0,1.3,0.5,1.3,1.5C82.1,316.6,81.9,320.3,80.4,322.6z
		 M23.4,328.3c0.5,0,6.5-0.3,7.8-0.3s6.8,0.3,7.5,0.3s1.8,0,1.8-0.5c0-0.8-1.8-0.8-2.5-1.3c-1.3-0.5-2-1-2.3-2.3
		c-0.5-2-0.5-5-0.5-11.3c0-4.8,0-9.5,1.5-12c1-1.8,3.5-3.8,6.5-3.8c3,0,4.5,0.5,6.3,2.5c1.8,2,1.5,6.3,1.5,13.3
		c0,5.8,0,8.8-0.3,10.8c-0.3,2-1.3,2.5-2.8,3c-1.3,0.5-2.8,0.5-2.8,1s0.5,0.5,2,0.5c1,0,5.8-0.3,7.8-0.3s6.5,0.3,7.3,0.3
		c1,0,1.5,0,1.5-0.8c0-0.5-1-0.8-2-1c-3.5-1-3.5-0.8-3.5-10.3c0-2.5,0-5.8,0-11c0-2.5-0.3-6.3-1.5-8.3c-1.8-2.5-4.5-4.5-9-4.5
		c-7.3,0-10.5,6-11.8,6c-0.5,0-0.5-0.5-0.5-1v-3.5c0-1,0-1.5-0.8-1.5c-0.5,0-1,0.5-1.2,0.5c-3.3,2.8-6.3,5-9.8,6
		c-0.3,0-0.5,0.3-0.5,0.8s0.8,0.5,2,0.8c1,0,1.8,0.5,2,1c0.8,1,0.8,4,0.8,8.8c0,7,0,11.5-0.5,14c-0.3,1.8-1.3,2-3,2.5
		c-1.3,0.3-2.5,0.5-2.5,1C22.1,328.3,22.4,328.3,23.4,328.3z"/>
</g>
</svg>
